<?xml version="1.0" encoding="utf-8"?>
<!-- Svg Vector Icons : http://www.onlinewebfonts.com/icon -->
<!DOCTYPE svg PUBLIC "-//W3C//DTD SVG 1.1//EN" "http://www.w3.org/Graphics/SVG/1.1/DTD/svg11.dtd">
<svg version="1.1" xmlns="http://www.w3.org/2000/svg" xmlns:xlink="http://www.w3.org/1999/xlink" x="0px" y="0px" viewBox="0 0 1000 1000" enable-background="new 0 0 1000 1000" xml:space="preserve">
<metadata> Svg Vector Icons : http://www.onlinewebfonts.com/icon </metadata>
<g><path d="M990,255.9c0,55.4,0.2,110.7-0.2,166.1c-0.1,11.1-1.5,22.2-3.4,33.2c-2.3,13.4-9.1,24.7-18.8,34.4C807.3,649.7,647,810.1,486.7,970.4c-26.3,26.3-63.5,26.2-89.9-0.1C280.3,853.8,163.9,737.3,47.4,620.9c-5.7-5.7-11.4-11.3-17-17c-27.1-27.2-27.2-64-0.1-91.2C140.7,402.3,251,292,361.4,181.6C410.6,132.3,460,83.3,509,33.8c14-14.2,30.8-21.8,50.1-22.4c33.2-1.2,66.5-1.2,99.7-1.3c85.5-0.1,171-0.1,256.4,0c35.4,0,65,23.7,72.8,58.2c1.4,6.2,1.9,12.8,1.9,19.2C990,143.6,990,199.7,990,255.9C990,255.9,990,255.9,990,255.9z M443.2,928.5c1.4-1.7,3-4.1,5.1-6.2c154.8-154.7,309.5-309.6,464.8-463.9c11.8-11.7,16.3-23.6,16.2-39.6c-0.4-110.1-0.2-220.3-0.2-330.4c0-12.9-4.6-17.6-17.7-17.6c-109.4,0-218.7,0-328.1,0c-6.6,0-13.4,0-19.9,1.2c-4.3,0.8-9.1,2.7-12.2,5.8c-158.6,158.4-317.1,317-475.6,475.5c-1.5,1.5-2.8,3-4.4,4.8C195.2,681.5,318.7,804.5,443.2,928.5z"/><path d="M745.7,132.5c67.8,0.6,122.7,56.1,121.8,123c-1,68.9-55.9,122.3-124.9,121.6c-66.9-0.7-120.4-56.6-119.7-125C623.6,186.4,679.5,131.9,745.7,132.5z M744.8,316.4c34,0.1,61.6-27.2,61.9-61.3c0.3-33.7-27.6-61.7-61.5-61.7c-33.6,0-61.4,27.5-61.5,61.1C683.5,288.5,710.9,316.3,744.8,316.4z"/></g>
</svg>